<?xml version="1.0" encoding="UTF-8"?>
<svg version="1.1" xmlns="http://www.w3.org/2000/svg" width="96" height="96">
<path d="M0 0 C1.02158203 0.00322266 2.04316406 0.00644531 3.09570312 0.00976562 C4.15080078 0.01814453 5.20589844 0.02652344 6.29296875 0.03515625 C7.36740234 0.03966797 8.44183594 0.04417969 9.54882812 0.04882812 C12.19276558 0.06057896 14.83658827 0.07700838 17.48046875 0.09765625 C17.76921875 0.8865625 18.05796875 1.67546875 18.35546875 2.48828125 C19.90272146 6.07704795 22.06709821 7.39097098 25.48046875 9.09765625 C25.48046875 9.75765625 25.48046875 10.41765625 25.48046875 11.09765625 C26.14046875 11.09765625 26.80046875 11.09765625 27.48046875 11.09765625 C27.54234375 11.69578125 27.60421875 12.29390625 27.66796875 12.91015625 C28.31616094 15.35306542 28.31616094 15.35306542 30.98046875 16.59765625 C33.48046875 18.09765625 33.48046875 18.09765625 34.04296875 19.97265625 C34.18734375 20.67390625 34.33171875 21.37515625 34.48046875 22.09765625 C35.14046875 22.79890625 35.80046875 23.50015625 36.48046875 24.22265625 C41.16961754 30.96330763 39.42922447 38.91482553 38.23046875 46.59765625 C38.10921631 47.39969482 37.98796387 48.2017334 37.86303711 49.02807617 C37.50730779 51.07237468 37.0032353 53.08956888 36.48046875 55.09765625 C33.48046875 57.09765625 33.48046875 57.09765625 30.48046875 58.09765625 C29.98546875 59.08765625 29.98546875 59.08765625 29.48046875 60.09765625 C27.12558212 62.68803155 25.84722279 63.9754049 22.48046875 65.09765625 C22.48046875 65.75765625 22.48046875 66.41765625 22.48046875 67.09765625 C21.49046875 67.09765625 20.50046875 67.09765625 19.48046875 67.09765625 C19.14015625 68.27328125 19.14015625 68.27328125 18.79296875 69.47265625 C17.48046875 72.09765625 17.48046875 72.09765625 14.91796875 73.28515625 C13.71140625 73.68734375 13.71140625 73.68734375 12.48046875 74.09765625 C12.15046875 74.75765625 11.82046875 75.41765625 11.48046875 76.09765625 C4.14645236 76.16799874 -3.18545019 76.15521318 -10.51953125 76.09765625 C-11.59235352 76.09185547 -12.66517578 76.08605469 -13.77050781 76.08007812 C-16.91723883 76.05149746 -20.06112588 75.98618794 -23.20703125 75.91015625 C-24.68441772 75.90157593 -24.68441772 75.90157593 -26.19165039 75.89282227 C-28.7367547 75.81205016 -31.0469523 75.70729678 -33.51953125 75.09765625 C-35.52734375 72.59765625 -35.52734375 72.59765625 -36.51953125 70.09765625 C-38.60486758 69.21943313 -38.60486758 69.21943313 -40.51953125 69.09765625 C-42.03542279 63.3568207 -40.83711682 58.79095162 -39.46484375 53.17578125 C-39.24384003 52.23458435 -39.0228363 51.29338745 -38.7951355 50.32366943 C-38.08887948 47.32903453 -37.36662652 44.33850653 -36.64453125 41.34765625 C-36.16567858 39.32054566 -35.68780312 37.29320395 -35.2109375 35.265625 C-34.75476826 33.33963938 -34.29776595 31.41385084 -33.83984375 29.48828125 C-33.62313019 28.57685364 -33.40641663 27.66542603 -33.18313599 26.72637939 C-32.97977631 25.88500427 -32.77641663 25.04362915 -32.56689453 24.17675781 C-32.38845001 23.43540588 -32.21000549 22.69405396 -32.02615356 21.93023682 C-31.51953125 20.09765625 -31.51953125 20.09765625 -30.51953125 18.09765625 C-29.85953125 18.09765625 -29.19953125 18.09765625 -28.51953125 18.09765625 C-28.18953125 17.43765625 -27.85953125 16.77765625 -27.51953125 16.09765625 C-27.18953125 15.43765625 -26.85953125 14.77765625 -26.51953125 14.09765625 C-25.52953125 14.09765625 -24.53953125 14.09765625 -23.51953125 14.09765625 C-23.18953125 13.43765625 -22.85953125 12.77765625 -22.51953125 12.09765625 C-20.16464462 9.50728095 -18.88628529 8.2199076 -15.51953125 7.09765625 C-15.51953125 6.43765625 -15.51953125 5.77765625 -15.51953125 5.09765625 C-14.52953125 5.09765625 -13.53953125 5.09765625 -12.51953125 5.09765625 C-12.18953125 4.43765625 -11.85953125 3.77765625 -11.51953125 3.09765625 C-11.18953125 2.43765625 -10.85953125 1.77765625 -10.51953125 1.09765625 C-6.99414728 0.11374693 -3.6441568 -0.02035842 0 0 Z M37.48046875 31.09765625 C37.48046875 32.74765625 37.48046875 34.39765625 37.48046875 36.09765625 C37.81046875 36.09765625 38.14046875 36.09765625 38.48046875 36.09765625 C38.48046875 34.44765625 38.48046875 32.79765625 38.48046875 31.09765625 C38.15046875 31.09765625 37.82046875 31.09765625 37.48046875 31.09765625 Z M36.48046875 37.09765625 C36.48046875 38.74765625 36.48046875 40.39765625 36.48046875 42.09765625 C36.81046875 42.09765625 37.14046875 42.09765625 37.48046875 42.09765625 C37.48046875 40.44765625 37.48046875 38.79765625 37.48046875 37.09765625 C37.15046875 37.09765625 36.82046875 37.09765625 36.48046875 37.09765625 Z M35.48046875 42.09765625 C35.48046875 44.07765625 35.48046875 46.05765625 35.48046875 48.09765625 C35.81046875 48.09765625 36.14046875 48.09765625 36.48046875 48.09765625 C36.48046875 46.11765625 36.48046875 44.13765625 36.48046875 42.09765625 C36.15046875 42.09765625 35.82046875 42.09765625 35.48046875 42.09765625 Z M34.48046875 49.09765625 C34.48046875 50.74765625 34.48046875 52.39765625 34.48046875 54.09765625 C34.81046875 54.09765625 35.14046875 54.09765625 35.48046875 54.09765625 C35.48046875 52.44765625 35.48046875 50.79765625 35.48046875 49.09765625 C35.15046875 49.09765625 34.82046875 49.09765625 34.48046875 49.09765625 Z M-32.51953125 73.09765625 C-32.51953125 73.42765625 -32.51953125 73.75765625 -32.51953125 74.09765625 C-24.59953125 74.09765625 -16.67953125 74.09765625 -8.51953125 74.09765625 C-8.51953125 73.76765625 -8.51953125 73.43765625 -8.51953125 73.09765625 C-16.43953125 73.09765625 -24.35953125 73.09765625 -32.51953125 73.09765625 Z " fill="#B7B8B7" transform="translate(49.51953125,9.90234375)"/>
<path d="M0 0 C5.94 0 11.88 0 18 0 C17.67 1.32 17.34 2.64 17 4 C18.32 4 19.64 4 21 4 C21 5.32 21 6.64 21 8 C22.32 8 23.64 8 25 8 C25 9.65 25 11.3 25 13 C26.32 13 27.64 13 29 13 C28.41509121 19.14154225 27.45933748 25.00679849 26 31 C24.35 31 22.7 31 21 31 C21 32.65 21 34.3 21 36 C19.02 36 17.04 36 15 36 C15 37.32 15 38.64 15 40 C13.35 40 11.7 40 10 40 C9.67 41.65 9.34 43.3 9 45 C3.06 45 -2.88 45 -9 45 C-9 43.35 -9 41.7 -9 40 C-10.32 40 -11.64 40 -13 40 C-13 41.65 -13 43.3 -13 45 C-16.3 45 -19.6 45 -23 45 C-22.34 41.7 -21.68 38.4 -21 35 C-19.35 35 -17.7 35 -16 35 C-16 33.68 -16 32.36 -16 31 C-17.32 31 -18.64 31 -20 31 C-19.52450066 28.37428665 -19.04477433 25.7494696 -18.5625 23.125 C-18.42779297 22.37863281 -18.29308594 21.63226563 -18.15429688 20.86328125 C-17.11328125 15.2265625 -17.11328125 15.2265625 -16 13 C-14.35 13 -12.7 13 -11 13 C-11 11.68 -11 10.36 -11 9 C-9.35 9 -7.7 9 -6 9 C-6 7.35 -6 5.7 -6 4 C-4.35 4 -2.7 4 -1 4 C-0.67 2.68 -0.34 1.36 0 0 Z " fill="#42AE4B" transform="translate(42,22)"/>
<path d="M0 0 C0.97453125 0.00451172 1.9490625 0.00902344 2.953125 0.01367188 C5.34381434 0.02539094 7.7343744 0.04179781 10.125 0.0625 C10.125 1.3825 10.125 2.7025 10.125 4.0625 C11.115 4.0625 12.105 4.0625 13.125 4.0625 C13.125 5.7125 13.125 7.3625 13.125 9.0625 C14.445 9.0625 15.765 9.0625 17.125 9.0625 C16.795 11.7025 16.465 14.3425 16.125 17.0625 C14.805 17.0625 13.485 17.0625 12.125 17.0625 C12.125 15.7425 12.125 14.4225 12.125 13.0625 C10.805 13.0625 9.485 13.0625 8.125 13.0625 C8.125 11.7425 8.125 10.4225 8.125 9.0625 C6.805 9.0625 5.485 9.0625 4.125 9.0625 C4.125 8.0725 4.125 7.0825 4.125 6.0625 C-1.485 5.7325 -7.095 5.4025 -12.875 5.0625 C-13.205 6.3825 -13.535 7.7025 -13.875 9.0625 C-15.525 9.0625 -17.175 9.0625 -18.875 9.0625 C-18.875 10.7125 -18.875 12.3625 -18.875 14.0625 C-20.525 14.0625 -22.175 14.0625 -23.875 14.0625 C-23.875 15.3825 -23.875 16.7025 -23.875 18.0625 C-25.525 18.0625 -27.175 18.0625 -28.875 18.0625 C-29.07996094 19.19429687 -29.28492188 20.32609375 -29.49609375 21.4921875 C-29.76806972 22.97398761 -30.04021387 24.45575685 -30.3125 25.9375 C-30.44720703 26.68386719 -30.58191406 27.43023437 -30.72070312 28.19921875 C-31.76171875 33.8359375 -31.76171875 33.8359375 -32.875 36.0625 C-31.555 36.0625 -30.235 36.0625 -28.875 36.0625 C-28.875 37.3825 -28.875 38.7025 -28.875 40.0625 C-30.525 40.0625 -32.175 40.0625 -33.875 40.0625 C-34.019375 41.34125 -34.16375 42.62 -34.3125 43.9375 C-34.58142746 46.31942894 -34.79726346 47.90702691 -35.875 50.0625 C-32.575 50.0625 -29.275 50.0625 -25.875 50.0625 C-25.875 48.4125 -25.875 46.7625 -25.875 45.0625 C-24.555 45.0625 -23.235 45.0625 -21.875 45.0625 C-21.875 46.7125 -21.875 48.3625 -21.875 50.0625 C-15.935 50.0625 -9.995 50.0625 -3.875 50.0625 C-3.545 48.4125 -3.215 46.7625 -2.875 45.0625 C-1.225 45.0625 0.425 45.0625 2.125 45.0625 C2.125 43.7425 2.125 42.4225 2.125 41.0625 C4.105 41.0625 6.085 41.0625 8.125 41.0625 C8.125 39.4125 8.125 37.7625 8.125 36.0625 C9.775 36.0625 11.425 36.0625 13.125 36.0625 C13.228125 34.845625 13.33125 33.62875 13.4375 32.375 C14.11338803 26.15285428 15.63361963 20.13119875 17.125 14.0625 C18.445 14.0625 19.765 14.0625 21.125 14.0625 C20.64816428 17.45866487 20.16811931 20.85436868 19.6875 24.25 C19.55279297 25.20970703 19.41808594 26.16941406 19.27929688 27.15820312 C19.14716797 28.08955078 19.01503906 29.02089844 18.87890625 29.98046875 C18.69823608 31.26087036 18.69823608 31.26087036 18.51391602 32.56713867 C18.12177852 35.08316964 17.64234627 37.56947664 17.125 40.0625 C15.145 40.0625 13.165 40.0625 11.125 40.0625 C11.125 43.3625 11.125 46.6625 11.125 50.0625 C7.495 50.0625 3.865 50.0625 0.125 50.0625 C0.125 51.3825 0.125 52.7025 0.125 54.0625 C-13.405 54.0625 -26.935 54.0625 -40.875 54.0625 C-39.555 48.1225 -38.235 42.1825 -36.875 36.0625 C-35.70855276 29.79301397 -35.70855276 29.79301397 -34.5859375 23.515625 C-33.91254953 20.24488345 -33.00190916 17.20243493 -31.875 14.0625 C-30.225 14.0625 -28.575 14.0625 -26.875 14.0625 C-26.875 12.7425 -26.875 11.4225 -26.875 10.0625 C-25.225 10.0625 -23.575 10.0625 -21.875 10.0625 C-21.545 8.4125 -21.215 6.7625 -20.875 5.0625 C-19.555 5.0625 -18.235 5.0625 -16.875 5.0625 C-16.875 3.7425 -16.875 2.4225 -16.875 1.0625 C-11.23973035 -0.14234722 -5.72963885 -0.0504643 0 0 Z " fill="#E5E5E5" transform="translate(54.875,16.9375)"/>
<path d="M0 0 C2.29296875 -0.2421875 2.29296875 -0.2421875 5 0 C6.80078125 1.6796875 6.80078125 1.6796875 8.3125 3.875 C8.82425781 4.59429687 9.33601563 5.31359375 9.86328125 6.0546875 C11 8 11 8 11 10 C10.01 10 9.02 10 8 10 C7.67 10.66 7.34 11.32 7 12 C4.64511337 14.5903753 3.36675404 15.87774865 0 17 C0 17.66 0 18.32 0 19 C-0.99 19 -1.98 19 -3 19 C-3.226875 19.78375 -3.45375 20.5675 -3.6875 21.375 C-5 24 -5 24 -7.5625 25.1875 C-8.366875 25.455625 -9.17125 25.72375 -10 26 C-10.33 26.66 -10.66 27.32 -11 28 C-18.33401639 28.07034249 -25.66591894 28.05755693 -33 28 C-34.07282227 27.99419922 -35.14564453 27.98839844 -36.25097656 27.98242188 C-39.39770758 27.95384121 -42.54159463 27.88853169 -45.6875 27.8125 C-47.16488647 27.80391968 -47.16488647 27.80391968 -48.67211914 27.79516602 C-51.21722345 27.71439391 -53.52742105 27.60964053 -56 27 C-58.0078125 24.5 -58.0078125 24.5 -59 22 C-61.08533633 21.12177688 -61.08533633 21.12177688 -63 21 C-63 20.01 -63 19.02 -63 18 C-48.15 18 -33.3 18 -18 18 C-17.67 16.68 -17.34 15.36 -17 14 C-15.35 14 -13.7 14 -12 14 C-12 12.35 -12 10.7 -12 9 C-10.02 9 -8.04 9 -6 9 C-6 7.35 -6 5.7 -6 4 C-4.35 4 -2.7 4 -1 4 C-0.67 2.68 -0.34 1.36 0 0 Z M-55 25 C-55 25.33 -55 25.66 -55 26 C-47.08 26 -39.16 26 -31 26 C-31 25.67 -31 25.34 -31 25 C-38.92 25 -46.84 25 -55 25 Z " fill="#7B7068" transform="translate(72,58)"/>
<path d="M0 0 C0.99 0 1.98 0 3 0 C3 0.66 3 1.32 3 2 C4.65 2 6.3 2 8 2 C6.68 2.33 5.36 2.66 4 3 C4 4.32 4 5.64 4 7 C2.68 7.33 1.36 7.66 0 8 C-0.33 9.32 -0.66 10.64 -1 12 C-2.65 12 -4.3 12 -6 12 C-6 13.32 -6 14.64 -6 16 C-7.65 16.33 -9.3 16.66 -11 17 C-12.93790295 24.90279572 -14.57401578 32.78278052 -15.8215332 40.82202148 C-16.71375391 46.25278864 -18.20303054 50.60909162 -20 56 C-6.47 56 7.06 56 21 56 C21 54.68 21 53.36 21 52 C22.65 52 24.3 52 26 52 C26 53.65 26 55.3 26 57 C24.35 57 22.7 57 21 57 C20.67 58.32 20.34 59.64 20 61 C4.82 61 -10.36 61 -26 61 C-24.46300052 52.54650286 -22.80142432 44.16163976 -20.96826172 35.77294922 C-20.49644701 33.6087022 -20.03136237 31.44307325 -19.56640625 29.27734375 C-19.26342968 27.88532762 -18.96005854 26.49339729 -18.65625 25.1015625 C-18.25116211 23.23491943 -18.25116211 23.23491943 -17.83789062 21.33056641 C-17.10215788 18.40607161 -16.2030102 15.75919169 -15 13 C-14.34 13 -13.68 13 -13 13 C-12.67 12.34 -12.34 11.68 -12 11 C-11.67 10.34 -11.34 9.68 -11 9 C-10.01 9 -9.02 9 -8 9 C-7.67 8.34 -7.34 7.68 -7 7 C-4.64511337 4.4096247 -3.36675404 3.12225135 0 2 C0 1.34 0 0.68 0 0 Z " fill="#C1C1C1" transform="translate(34,15)"/>
<path d="M0 0 C5.94 0 11.88 0 18 0 C17.67 1.32 17.34 2.64 17 4 C18.32 4 19.64 4 21 4 C21 5.32 21 6.64 21 8 C22.32 8 23.64 8 25 8 C25 9.65 25 11.3 25 13 C26.32 13 27.64 13 29 13 C28.41509121 19.14154225 27.45933748 25.00679849 26 31 C24.02 31.33 22.04 31.66 20 32 C20.33 30.35 20.66 28.7 21 27 C20.01 26.67 19.02 26.34 18 26 C18.99 25.67 19.98 25.34 21 25 C21.33 24.01 21.66 23.02 22 22 C17.71 22 13.42 22 9 22 C8.67 23.32 8.34 24.64 8 26 C6.68 26 5.36 26 4 26 C4 24.68 4 23.36 4 22 C2.68 22 1.36 22 0 22 C0.33 20.35 0.66 18.7 1 17 C2.65 17 4.3 17 6 17 C5.979375 15.88625 5.95875 14.7725 5.9375 13.625 C6 10 6 10 7 8 C5.35 8 3.7 8 2 8 C2.33 7.01 2.66 6.02 3 5 C1.68 5 0.36 5 -1 5 C-0.67 3.35 -0.34 1.7 0 0 Z " fill="#38A843" transform="translate(42,22)"/>
<path d="M0 0 C2.29296875 -0.2421875 2.29296875 -0.2421875 5 0 C6.80078125 1.6796875 6.80078125 1.6796875 8.3125 3.875 C8.82425781 4.59429687 9.33601563 5.31359375 9.86328125 6.0546875 C11 8 11 8 11 10 C10.01 10 9.02 10 8 10 C7.67 10.66 7.34 11.32 7 12 C4.64511337 14.5903753 3.36675404 15.87774865 0 17 C0 17.66 0 18.32 0 19 C-0.99 19 -1.98 19 -3 19 C-3.309375 20.175625 -3.309375 20.175625 -3.625 21.375 C-5 24 -5 24 -8.125 25.3125 C-9.548125 25.6528125 -9.548125 25.6528125 -11 26 C-11.79664062 25.02804688 -12.59328125 24.05609375 -13.4140625 23.0546875 C-16.7377552 19.7309948 -19.32529817 19.26679671 -23.92578125 19.1171875 C-24.73402344 19.11976562 -25.54226562 19.12234375 -26.375 19.125 C-27.20644531 19.104375 -28.03789063 19.08375 -28.89453125 19.0625 C-30.92925655 19.01572471 -32.96474159 19.00426679 -35 19 C-35 18.67 -35 18.34 -35 18 C-29.39 18 -23.78 18 -18 18 C-17.67 16.68 -17.34 15.36 -17 14 C-15.35 14 -13.7 14 -12 14 C-12 12.35 -12 10.7 -12 9 C-10.02 9 -8.04 9 -6 9 C-6 7.35 -6 5.7 -6 4 C-4.35 4 -2.7 4 -1 4 C-0.67 2.68 -0.34 1.36 0 0 Z " fill="#83807E" transform="translate(72,58)"/>
<path d="M0 0 C2.97 0 5.94 0 9 0 C8.67 2.64 8.34 5.28 8 8 C6.35 8 4.7 8 3 8 C2.67 9.65 2.34 11.3 2 13 C3.32 13 4.64 13 6 13 C6 14.32 6 15.64 6 17 C7.98491642 16.73323796 7.98491642 16.73323796 10 16 C10.33 15.01 10.66 14.02 11 13 C13.97 13 16.94 13 20 13 C19.125 20.875 19.125 20.875 18 22 C16.33382885 22.04063832 14.66611905 22.042721 13 22 C13 23.32 13 24.64 13 26 C10.36 26 7.72 26 5 26 C5 24.35 5 22.7 5 21 C3.68 21 2.36 21 1 21 C1 19.68 1 18.36 1 17 C-0.32 17 -1.64 17 -3 17 C-3 15.68 -3 14.36 -3 13 C-4.32 13 -5.64 13 -7 13 C-6.125 5.125 -6.125 5.125 -5 4 C-3.33382885 3.95936168 -1.66611905 3.957279 0 4 C0 2.68 0 1.36 0 0 Z " fill="#E5E4E5" transform="translate(40,31)"/>
<path d="M0 0 C5.94 0 11.88 0 18 0 C17.67 1.32 17.34 2.64 17 4 C18.32 4 19.64 4 21 4 C21 6.64 21 9.28 21 12 C21.99 12.33 22.98 12.66 24 13 C22.68 13 21.36 13 20 13 C20 14.32 20 15.64 20 17 C21.32 16.67 22.64 16.34 24 16 C23.67 17.32 23.34 18.64 23 20 C23 19.34 23 18.68 23 18 C20.36 17.67 17.72 17.34 15 17 C14.67 16.01 14.34 15.02 14 14 C14 14.99 14 15.98 14 17 C13.01 17 12.02 17 11 17 C11 16.01 11 15.02 11 14 C9.68 14 8.36 14 7 14 C7 12.02 7 10.04 7 8 C5.35 8 3.7 8 2 8 C2.33 7.01 2.66 6.02 3 5 C1.68 5 0.36 5 -1 5 C-0.67 3.35 -0.34 1.7 0 0 Z " fill="#28A036" transform="translate(42,22)"/>
<path d="M0 0 C1.32 0 2.64 0 4 0 C3.52316428 3.39616487 3.04311931 6.79186868 2.5625 10.1875 C2.42779297 11.14720703 2.29308594 12.10691406 2.15429688 13.09570312 C2.02216797 14.02705078 1.89003906 14.95839844 1.75390625 15.91796875 C1.63345947 16.77156982 1.5130127 17.6251709 1.38891602 18.50463867 C0.99677852 21.02066964 0.51734627 23.50697664 0 26 C-1.98 26 -3.96 26 -6 26 C-6 29.3 -6 32.6 -6 36 C-9.63 36 -13.26 36 -17 36 C-17 37.32 -17 38.64 -17 40 C-18.65 40 -20.3 40 -22 40 C-21.51421457 36.87709365 -21.0013988 34.00419641 -20 31 C-18.35 31 -16.7 31 -15 31 C-15 29.68 -15 28.36 -15 27 C-13.02 27 -11.04 27 -9 27 C-9 25.35 -9 23.7 -9 22 C-7.35 22 -5.7 22 -4 22 C-3.896875 20.783125 -3.79375 19.56625 -3.6875 18.3125 C-3.01161197 12.09035428 -1.49138037 6.06869875 0 0 Z " fill="#D4D8D4" transform="translate(72,31)"/>
<path d="M0 0 C0.99 0 1.98 0 3 0 C3 1.32 3 2.64 3 4 C4.32 4 5.64 4 7 4 C7 5.32 7 6.64 7 8 C5.35 8 3.7 8 2 8 C1.855625 9.27875 1.71125 10.5575 1.5625 11.875 C1.29357254 14.25692894 1.07773654 15.84452691 0 18 C3.3 18 6.6 18 10 18 C10 16.35 10 14.7 10 13 C11.32 13 12.64 13 14 13 C14 14.65 14 16.3 14 18 C19.61 18 25.22 18 31 18 C31 19.32 31 20.64 31 22 C19.12 22 7.24 22 -5 22 C-4.360625 19.1125 -3.72125 16.225 -3.0625 13.25 C-2.86277588 12.34668945 -2.66305176 11.44337891 -2.45727539 10.51269531 C-2.29735107 9.79178711 -2.13742676 9.07087891 -1.97265625 8.328125 C-1.72914429 7.22839355 -1.72914429 7.22839355 -1.48071289 6.10644531 C-1.01446454 4.06338247 -0.51579351 2.03106238 0 0 Z " fill="#ECEBEB" transform="translate(19,49)"/>
<path d="M0 0 C7.48641304 7.48641304 7.48641304 7.48641304 8.046875 13.84765625 C7.95500065 20.02620618 6.41409532 26.00807067 5 32 C3 29 3 29 2 26 C1.34 26.99 0.68 27.98 0 29 C-1.32 28.34 -2.64 27.68 -4 27 C-4.26570232 20.94696895 -3.25909363 15.47088194 -2 9.5625 C-1.80921875 8.64017578 -1.6184375 7.71785156 -1.421875 6.76757812 C-0.95405792 4.51036071 -0.47997253 2.2546582 0 0 Z M6 11 C6 12.65 6 14.3 6 16 C6.33 16 6.66 16 7 16 C7 14.35 7 12.7 7 11 C6.67 11 6.34 11 6 11 Z M5 17 C5 18.65 5 20.3 5 22 C5.33 22 5.66 22 6 22 C6 20.35 6 18.7 6 17 C5.67 17 5.34 17 5 17 Z M4 22 C4 23.98 4 25.96 4 28 C4.33 28 4.66 28 5 28 C5 26.02 5 24.04 5 22 C4.67 22 4.34 22 4 22 Z " fill="#9C9C9C" transform="translate(81,30)"/>
<path d="M0 0 C1.02158203 0.00322266 2.04316406 0.00644531 3.09570312 0.00976562 C4.15080078 0.01814453 5.20589844 0.02652344 6.29296875 0.03515625 C7.36740234 0.03966797 8.44183594 0.04417969 9.54882812 0.04882812 C12.19276558 0.06057896 14.83658827 0.07700838 17.48046875 0.09765625 C16.82046875 2.40765625 16.16046875 4.71765625 15.48046875 7.09765625 C11.7521799 7.32431901 8.02293834 7.52575324 4.29296875 7.72265625 C2.71032227 7.81933594 2.71032227 7.81933594 1.09570312 7.91796875 C0.07412109 7.96953125 -0.94746094 8.02109375 -2 8.07421875 C-2.93739014 8.12658691 -3.87478027 8.17895508 -4.84057617 8.23291016 C-7.7824093 8.08438418 -9.86306999 7.33214182 -12.51953125 6.09765625 C-11.51953125 3.09765625 -11.51953125 3.09765625 -10.51953125 1.09765625 C-6.99414728 0.11374693 -3.6441568 -0.02035842 0 0 Z " fill="#B7B8B7" transform="translate(49.51953125,9.90234375)"/>
<path d="M0 0 C1.32 0 2.64 0 4 0 C3.9278125 0.67546875 3.855625 1.3509375 3.78125 2.046875 C3.64203125 3.38492188 3.64203125 3.38492188 3.5 4.75 C3.36078125 6.07257812 3.36078125 6.07257812 3.21875 7.421875 C2.94363687 10.23304835 2.94363687 10.23304835 3 14 C1.02 14 -0.96 14 -3 14 C-3 15.32 -3 16.64 -3 18 C-4.32 18 -5.64 18 -7 18 C-7 16.68 -7 15.36 -7 14 C-7.556875 14.01160156 -8.11375 14.02320313 -8.6875 14.03515625 C-13.89778343 14.09676433 -18.8437951 13.74999344 -24 13 C-23.67 10.03 -23.34 7.06 -23 4 C-21.68 4 -20.36 4 -19 4 C-19 5.32 -19 6.64 -19 8 C-17.68 8 -16.36 8 -15 8 C-15 9.65 -15 11.3 -15 13 C-12.36 13 -9.72 13 -7 13 C-7 11.68 -7 10.36 -7 9 C-5.35 8.67 -3.7 8.34 -2 8 C-1.34 5.36 -0.68 2.72 0 0 Z " fill="#45AE4E" transform="translate(60,44)"/>
<path d="M0 0 C1.65 0 3.3 0 5 0 C5 1.65 5 3.3 5 5 C3.35 5 1.7 5 0 5 C-0.33 6.32 -0.66 7.64 -1 9 C-16.18 9 -31.36 9 -47 9 C-46.67 8.01 -46.34 7.02 -46 6 C-46 6.66 -46 7.32 -46 8 C-37.42 8 -28.84 8 -20 8 C-19.67 6.68 -19.34 5.36 -19 4 C-12.73 4 -6.46 4 0 4 C0 2.68 0 1.36 0 0 Z " fill="#B3B2B2" transform="translate(55,67)"/>
<path d="M0 0 C6.93 0 13.86 0 21 0 C21 1.32 21 2.64 21 4 C21.99 4 22.98 4 24 4 C24 5.65 24 7.3 24 9 C25.32 9 26.64 9 28 9 C27.67 11.64 27.34 14.28 27 17 C25.68 17 24.36 17 23 17 C23 15.68 23 14.36 23 13 C21.68 13 20.36 13 19 13 C19 11.68 19 10.36 19 9 C17.68 9 16.36 9 15 9 C15 8.01 15 7.02 15 6 C9.39 5.67 3.78 5.34 -2 5 C-2 4.67 -2 4.34 -2 4 C6.415 3.505 6.415 3.505 15 3 C15 2.67 15 2.34 15 2 C10.05 1.67 5.1 1.34 0 1 C0 0.67 0 0.34 0 0 Z " fill="#CBD4CC" transform="translate(44,17)"/>
<path d="M0 0 C1.32 0 2.64 0 4 0 C4 1.65 4 3.3 4 5 C9.61 5 15.22 5 21 5 C21 6.32 21 7.64 21 9 C9.12 9 -2.76 9 -15 9 C-14.67 8.34 -14.34 7.68 -14 7 C-10.04 7.33 -6.08 7.66 -2 8 C-2 7.34 -2 6.68 -2 6 C0.475 6.99 0.475 6.99 3 8 C3 7.01 3 6.02 3 5 C2.01 4.67 1.02 4.34 0 4 C0 2.68 0 1.36 0 0 Z " fill="#E5E5E5" transform="translate(29,62)"/>
<path d="M0 0 C4.29 0.33 8.58 0.66 13 1 C12.67 2.32 12.34 3.64 12 5 C10.68 5 9.36 5 8 5 C8 6.65 8 8.3 8 10 C4.7 10 1.4 10 -2 10 C-1.34 6.7 -0.68 3.4 0 0 Z " fill="#47B050" transform="translate(21,57)"/>
<path d="M0 0 C0.66 0.99 1.32 1.98 2 3 C2.66 3 3.32 3 4 3 C4.33 2.34 4.66 1.68 5 1 C5 1.99 5 2.98 5 4 C6.32 4 7.64 4 9 4 C9 5.65 9 7.3 9 9 C5.37 9 1.74 9 -2 9 C-2 10.32 -2 11.64 -2 13 C-3.65 13 -5.3 13 -7 13 C-6.51421457 9.87709365 -6.0013988 7.00419641 -5 4 C-3.35 4 -1.7 4 0 4 C0 2.68 0 1.36 0 0 Z " fill="#DEDFDE" transform="translate(57,58)"/>
<path d="M0 0 C0.7425 0.78375 1.485 1.5675 2.25 2.375 C4.54433318 4.56504531 6.12158858 5.82731386 9 7 C9 7.66 9 8.32 9 9 C9.66 9 10.32 9 11 9 C11.061875 9.598125 11.12375 10.19625 11.1875 10.8125 C12.3236757 13.87143458 14.17330142 14.55041099 17 16 C16.67 16.66 16.34 17.32 16 18 C14.35 18 12.7 18 11 18 C11 16.68 11 15.36 11 14 C9.68 14 8.36 14 7 14 C7 12.68 7 11.36 7 10 C5.68 10 4.36 10 3 10 C2.67 10.66 2.34 11.32 2 12 C2 11.01 2 10.02 2 9 C0.68 9.33 -0.64 9.66 -2 10 C-1.34 6.7 -0.68 3.4 0 0 Z " fill="#9B9B9B" transform="translate(66,12)"/>
<path d="M0 0 C2.31 0.33 4.62 0.66 7 1 C7 2.32 7 3.64 7 5 C8.65 5 10.3 5 12 5 C11.67 6.32 11.34 7.64 11 9 C5.06 9 -0.88 9 -7 9 C-7 7.35 -7 5.7 -7 4 C-5.68 4.33 -4.36 4.66 -3 5 C-3 5.99 -3 6.98 -3 8 C-1.02 8 0.96 8 3 8 C3.33 6.35 3.66 4.7 4 3 C2.35 3 0.7 3 -1 3 C-0.67 2.01 -0.34 1.02 0 0 Z " fill="#4BB254" transform="translate(40,58)"/>
<path d="M0 0 C4.29 0 8.58 0 13 0 C12.67 2.64 12.34 5.28 12 8 C10.68 8 9.36 8 8 8 C7.67 7.01 7.34 6.02 7 5 C7 5.99 7 6.98 7 8 C6.01 8 5.02 8 4 8 C4 7.01 4 6.02 4 5 C2.68 5 1.36 5 0 5 C0 3.35 0 1.7 0 0 Z " fill="#35AC41" transform="translate(49,31)"/>
<path d="M0 0 C0.33 0 0.66 0 1 0 C1.144375 1.093125 1.28875 2.18625 1.4375 3.3125 C1.88288104 6.93122987 1.88288104 6.93122987 3 10 C2.01 10.495 2.01 10.495 1 11 C-1.90802461 8.78071806 -3.95312762 7.07030857 -6 4 C-8.56282742 3.27034634 -8.56282742 3.27034634 -11 3 C-11.33 4.32 -11.66 5.64 -12 7 C-13.65 7 -15.3 7 -17 7 C-17 5.35 -17 3.7 -17 2 C-14.87631556 1.77865824 -12.75095976 1.57329993 -10.625 1.375 C-9.44164063 1.25898437 -8.25828125 1.14296875 -7.0390625 1.0234375 C-6.03617188 1.01570313 -5.03328125 1.00796875 -4 1 C-3.34 1.66 -2.68 2.32 -2 3 C-1.34 2.01 -0.68 1.02 0 0 Z " fill="#A9A9A8" transform="translate(83,55)"/>
<path d="M0 0 C2.97 0 5.94 0 9 0 C8.67 2.64 8.34 5.28 8 8 C6.35 8 4.7 8 3 8 C2.67 9.32 2.34 10.64 2 12 C1.01 12 0.02 12 -1 12 C-0.67 8.04 -0.34 4.08 0 0 Z " fill="#E9E8E9" transform="translate(40,31)"/>
<path d="M0 0 C1.02158203 0.00322266 2.04316406 0.00644531 3.09570312 0.00976562 C4.15080078 0.01814453 5.20589844 0.02652344 6.29296875 0.03515625 C7.36740234 0.03966797 8.44183594 0.04417969 9.54882812 0.04882812 C12.19276558 0.06057896 14.83658827 0.07700838 17.48046875 0.09765625 C16.82046875 2.40765625 16.16046875 4.71765625 15.48046875 7.09765625 C13.83046875 7.09765625 12.18046875 7.09765625 10.48046875 7.09765625 C10.48046875 6.10765625 10.48046875 5.11765625 10.48046875 4.09765625 C3.55046875 3.43765625 -3.37953125 2.77765625 -10.51953125 2.09765625 C-10.51953125 1.76765625 -10.51953125 1.43765625 -10.51953125 1.09765625 C-6.94603084 0.27867003 -3.66293646 -0.02046333 0 0 Z " fill="#AFAFAF" transform="translate(49.51953125,9.90234375)"/>
<path d="M0 0 C1.32 0 2.64 0 4 0 C4 1.32 4 2.64 4 4 C5.32 4 6.64 4 8 4 C8 5.65 8 7.3 8 9 C10.64 9 13.28 9 16 9 C16 9.33 16 9.66 16 10 C10.22240116 10.12036664 4.72040011 9.8320582 -1 9 C-0.67 6.03 -0.34 3.06 0 0 Z " fill="#60B767" transform="translate(37,48)"/>
<path d="M0 0 C2.33333333 2.33333333 4.66666667 4.66666667 7 7 C6.625 9.125 6.625 9.125 6 11 C4.0085944 11.38133299 2.00720923 11.71325582 0 12 C-1 11 -1 11 -1.125 7.6875 C-1.02893262 4.85351237 -0.85249568 2.66404901 0 0 Z " fill="#909090" transform="translate(81,30)"/>
<path d="M0 0 C6.86214442 5.0940919 6.86214442 5.0940919 7.4375 8.875 C7.293125 9.57625 7.14875 10.2775 7 11 C6.21625 10.030625 5.4325 9.06125 4.625 8.0625 C-1.32282629 2.7852011 -10.50765659 4.01585681 -18 4 C-18 3.67 -18 3.34 -18 3 C-12.39 3 -6.78 3 -1 3 C-0.67 2.01 -0.34 1.02 0 0 Z " fill="#8A8684" transform="translate(55,73)"/>
<path d="M0 0 C2.64 0 5.28 0 8 0 C8 0.99 8 1.98 8 3 C6.35 3 4.7 3 3 3 C3 4.65 3 6.3 3 8 C2.236875 7.814375 1.47375 7.62875 0.6875 7.4375 C-2.08967375 6.77180827 -2.08967375 6.77180827 -5 8 C-5 6.68 -5 5.36 -5 4 C-3.35 4 -1.7 4 0 4 C0 2.68 0 1.36 0 0 Z " fill="#E1E0E1" transform="translate(63,54)"/>
<path d="M0 0 C1.65 0 3.3 0 5 0 C5 1.65 5 3.3 5 5 C3.35 5 1.7 5 0 5 C-0.33 6.32 -0.66 7.64 -1 9 C-2.65 9 -4.3 9 -6 9 C-5.67 7.35 -5.34 5.7 -5 4 C-3.35 4 -1.7 4 0 4 C0 2.68 0 1.36 0 0 Z " fill="#B9B9B9" transform="translate(55,67)"/>
<path d="M0 0 C0 0.33 0 0.66 0 1 C2.97 1.33 5.94 1.66 9 2 C9 2.33 9 2.66 9 3 C-3.04750524 3.1063689 -14.99494383 3.14724086 -27 2 C-27 1.67 -27 1.34 -27 1 C-17.98865693 0.3668316 -9.04028922 -0.1723784 0 0 Z " fill="#6E6A5C" transform="translate(52,83)"/>
<path d="M0 0 C1.2077558 3.62326739 0.54311128 4.64146369 -1 8 C-2.32 8 -3.64 8 -5 8 C-5.33 8.66 -5.66 9.32 -6 10 C-6 9.34 -6 8.68 -6 8 C-6.99 8 -7.98 8 -9 8 C-9 6.35 -9 4.7 -9 3 C-4.545 2.505 -4.545 2.505 0 2 C0 1.34 0 0.68 0 0 Z " fill="#3AAC45" transform="translate(35,32)"/>
<path d="M0 0 C2.29296875 -0.2421875 2.29296875 -0.2421875 5 0 C6.80078125 1.6796875 6.80078125 1.6796875 8.3125 3.875 C8.82425781 4.59429687 9.33601563 5.31359375 9.86328125 6.0546875 C11 8 11 8 11 10 C10.01 10 9.02 10 8 10 C7.67 10.66 7.34 11.32 7 12 C6.5875 11.13375 6.175 10.2675 5.75 9.375 C4.02167851 6.04180856 2.12923592 3.08372099 0 0 Z " fill="#686461" transform="translate(72,58)"/>
<path d="M0 0 C0.33 0.66 0.66 1.32 1 2 C4.96 2 8.92 2 13 2 C13 3.32 13 4.64 13 6 C13.66 6.33 14.32 6.66 15 7 C14.01 7.495 14.01 7.495 13 8 C12.67 8.99 12.34 9.98 12 11 C10.35 11 8.7 11 7 11 C7.33 9.35 7.66 7.7 8 6 C8.99 6 9.98 6 11 6 C11 5.34 11 4.68 11 4 C8.69 3.67 6.38 3.34 4 3 C3.67 3.66 3.34 4.32 3 5 C3 4.34 3 3.68 3 3 C2.01 3 1.02 3 0 3 C0 2.01 0 1.02 0 0 Z " fill="#3CAA46" transform="translate(24,46)"/>
<path d="M0 0 C2.0625 -0.4375 2.0625 -0.4375 5 0 C7.66319082 2.04691526 9.99520352 4.30190215 12 7 C12 7.99 12 8.98 12 10 C10.68 10.33 9.36 10.66 8 11 C8 9.68 8 8.36 8 7 C7.4225 6.773125 6.845 6.54625 6.25 6.3125 C3.4336339 4.66961977 1.91922886 2.60466773 0 0 Z " fill="#6A6361" transform="translate(55,72)"/>
<path d="M0 0 C0.66 0.99 1.32 1.98 2 3 C2.66 3 3.32 3 4 3 C4.33 2.34 4.66 1.68 5 1 C5 1.99 5 2.98 5 4 C6.32 4 7.64 4 9 4 C9 5.65 9 7.3 9 9 C7.02 9 5.04 9 3 9 C3 7.68 3 6.36 3 5 C0.36 5 -2.28 5 -5 5 C-5 4.67 -5 4.34 -5 4 C-3.35 4 -1.7 4 0 4 C0 2.68 0 1.36 0 0 Z " fill="#BDC3BE" transform="translate(57,58)"/>
<path d="M0 0 C5.28 0 10.56 0 16 0 C15.67 1.32 15.34 2.64 15 4 C12.69 4 10.38 4 8 4 C8 3.34 8 2.68 8 2 C5.03 2 2.06 2 -1 2 C-0.67 1.34 -0.34 0.68 0 0 Z " fill="#BFBFBF" transform="translate(45,13)"/>
<path d="M0 0 C1.32 0 2.64 0 4 0 C4 2.97 4 5.94 4 9 C-2.27 9 -8.54 9 -15 9 C-14.67 8.34 -14.34 7.68 -14 7 C-10.04 7.33 -6.08 7.66 -2 8 C-2 7.34 -2 6.68 -2 6 C0.475 6.99 0.475 6.99 3 8 C3 7.01 3 6.02 3 5 C2.01 4.67 1.02 4.34 0 4 C0 2.68 0 1.36 0 0 Z " fill="#DEE0DE" transform="translate(29,62)"/>
<path d="M0 0 C2.29296875 -0.25 2.29296875 -0.25 5 0 C6.80078125 1.75 6.80078125 1.75 8.3125 4 C8.82425781 4.7425 9.33601563 5.485 9.86328125 6.25 C10.23839844 6.8275 10.61351563 7.405 11 8 C10.01 8.99 9.02 9.98 8 11 C7.87625 10.071875 7.87625 10.071875 7.75 9.125 C7.21964484 6.83849644 7.21964484 6.83849644 5.125 6.0625 C2.28311837 4.64155919 1.45200509 2.75880967 0 0 Z " fill="#625D57" transform="translate(67,63)"/>
<path d="M0 0 C1.2065625 0.0309375 1.2065625 0.0309375 2.4375 0.0625 C2.7675 1.7125 3.0975 3.3625 3.4375 5.0625 C1.7875 5.3925 0.1375 5.7225 -1.5625 6.0625 C-0.9025 6.7225 -0.2425 7.3825 0.4375 8.0625 C0.1075 9.0525 -0.2225 10.0425 -0.5625 11.0625 C-0.5625 10.4025 -0.5625 9.7425 -0.5625 9.0625 C-1.8825 9.0625 -3.2025 9.0625 -4.5625 9.0625 C-3.56521739 0.08695652 -3.56521739 0.08695652 0 0 Z " fill="#E2E3E2" transform="translate(37.5625,34.9375)"/>
<path d="M0 0 C2.31 0.33 4.62 0.66 7 1 C7 2.32 7 3.64 7 5 C5.906875 5.309375 4.81375 5.61875 3.6875 5.9375 C1.44592006 6.58337897 -0.7869351 7.2623117 -3 8 C-2.67 6.02 -2.34 4.04 -2 2 C-1.34 2 -0.68 2 0 2 C0 1.34 0 0.68 0 0 Z " fill="#CACACA" transform="translate(21,26)"/>
<path d="M0 0 C0.99 0.495 0.99 0.495 2 1 C2 1.66 2 2.32 2 3 C2.66 3 3.32 3 4 3 C4.061875 3.598125 4.12375 4.19625 4.1875 4.8125 C5.3236757 7.87143458 7.17330142 8.55041099 10 10 C9.67 10.66 9.34 11.32 9 12 C7.35 12 5.7 12 4 12 C4 10.68 4 9.36 4 8 C2.68 8 1.36 8 0 8 C0 5.36 0 2.72 0 0 Z " fill="#898989" transform="translate(73,18)"/>
<path d="M0 0 C2.64 0.33 5.28 0.66 8 1 C7.67 2.98 7.34 4.96 7 7 C6.01 7 5.02 7 4 7 C4 6.01 4 5.02 4 4 C2.35 4 0.7 4 -1 4 C-0.67 2.68 -0.34 1.36 0 0 Z " fill="#33AE41" transform="translate(42,22)"/>
<path d="M0 0 C2.93200474 2.85276137 5.64315404 5.65079784 8 9 C7.01 10.485 7.01 10.485 6 12 C0.09230769 6.83076923 0.09230769 6.83076923 -0.375 2.625 C-0.25125 1.75875 -0.1275 0.8925 0 0 Z " fill="#8C8B8B" transform="translate(60,67)"/>
<path d="M0 0 C1.32 0.33 2.64 0.66 4 1 C3.67 2.98 3.34 4.96 3 7 C0.36 7 -2.28 7 -5 7 C-5 6.01 -5 5.02 -5 4 C-3.35 4 -1.7 4 0 4 C0 2.68 0 1.36 0 0 Z " fill="#EBEAEB" transform="translate(33,23)"/>
<path d="M0 0 C1.65 0 3.3 0 5 0 C4.67 2.64 4.34 5.28 4 8 C2.35 7.67 0.7 7.34 -1 7 C-1 6.34 -1 5.68 -1 5 C-1.66 4.67 -2.32 4.34 -3 4 C-2.34 4 -1.68 4 -1 4 C-0.67 2.68 -0.34 1.36 0 0 Z " fill="#DBDDDB" transform="translate(55,44)"/>
<path d="M0 0 C1.32 0 2.64 0 4 0 C3.34 3.96 2.68 7.92 2 12 C1.01 11.67 0.02 11.34 -1 11 C-0.67 10.67 -0.34 10.34 0 10 C-0.33 10 -0.66 10 -1 10 C-0.67 6.7 -0.34 3.4 0 0 Z " fill="#DEDEDE" transform="translate(72,31)"/>
<path d="M0 0 C1.98 0 3.96 0 6 0 C5.67 1.65 5.34 3.3 5 5 C3.35 5 1.7 5 0 5 C0 3.35 0 1.7 0 0 Z " fill="#3EA948" transform="translate(47,58)"/>
<path d="M0 0 C0.33 1.32 0.66 2.64 1 4 C1.99 4 2.98 4 4 4 C3.67 6.31 3.34 8.62 3 11 C1.68 10.67 0.36 10.34 -1 10 C-0.67 6.7 -0.34 3.4 0 0 Z " fill="#44B14E" transform="translate(48,32)"/>
<path d="M0 0 C1.65 0 3.3 0 5 0 C5 1.65 5 3.3 5 5 C3.35 5 1.7 5 0 5 C-0.33 5.66 -0.66 6.32 -1 7 C-0.67 4.69 -0.34 2.38 0 0 Z " fill="#DBDFDB" transform="translate(43,34)"/>
<path d="M0 0 C0 0.33 0 0.66 0 1 C-1.65 1 -3.3 1 -5 1 C-5 2.32 -5 3.64 -5 5 C-6.65 5 -8.3 5 -10 5 C-10 3.68 -10 2.36 -10 1 C-6.78548731 -0.60725635 -3.56387464 -0.05748185 0 0 Z " fill="#D8E0D8" transform="translate(36,30)"/>
<path d="M0 0 C0.99 0 1.98 0 3 0 C2.67 2.64 2.34 5.28 2 8 C0.68 8 -0.64 8 -2 8 C-1.125 1.125 -1.125 1.125 0 0 Z " fill="#E0DFDF" transform="translate(69,26)"/>
<path d="M0 0 C0.99 0 1.98 0 3 0 C3 0.66 3 1.32 3 2 C4.65 2 6.3 2 8 2 C6.68 2.33 5.36 2.66 4 3 C4 4.32 4 5.64 4 7 C2.68 7 1.36 7 0 7 C0 4.69 0 2.38 0 0 Z " fill="#C8C8C8" transform="translate(34,15)"/>
<path d="M0 0 C0.33 0.99 0.66 1.98 1 3 C3.64 3 6.28 3 9 3 C8.67 3.99 8.34 4.98 8 6 C5.36 6 2.72 6 0 6 C0 4.02 0 2.04 0 0 Z " fill="#4CB755" transform="translate(25,37)"/>
<path d="M0 0 C1.32 0.33 2.64 0.66 4 1 C3.34 3.31 2.68 5.62 2 8 C0.68 7.67 -0.64 7.34 -2 7 C-1.34 4.69 -0.68 2.38 0 0 Z " fill="#2FAB3D" transform="translate(56,22)"/>
<path d="M0 0 C1.32 0.33 2.64 0.66 4 1 C4 1.99 4 2.98 4 4 C6.97 4 9.94 4 13 4 C13 4.33 13 4.66 13 5 C8.71 5 4.42 5 0 5 C0 3.35 0 1.7 0 0 Z " fill="#5EB667" transform="translate(33,62)"/>
<path d="M0 0 C1.65 0 3.3 0 5 0 C5 1.65 5 3.3 5 5 C3.35 5 1.7 5 0 5 C0 3.35 0 1.7 0 0 Z " fill="#BEBEBE" transform="translate(66,57)"/>
<path d="M0 0 C0.99 0 1.98 0 3 0 C3 1.32 3 2.64 3 4 C4.65 3.67 6.3 3.34 8 3 C8 3.66 8 4.32 8 5 C5.03 5 2.06 5 -1 5 C-0.67 3.35 -0.34 1.7 0 0 Z " fill="#D0DBD1" transform="translate(43,44)"/>
<path d="M0 0 C0.33 0.66 0.66 1.32 1 2 C1.99 2 2.98 2 4 2 C4 2.66 4 3.32 4 4 C5.65 4.33 7.3 4.66 9 5 C9 5.33 9 5.66 9 6 C5.7 6 2.4 6 -1 6 C-0.67 4.02 -0.34 2.04 0 0 Z " fill="#6FBD76" transform="translate(20,61)"/>
<path d="M0 0 C2.64 0 5.28 0 8 0 C7.67 1.32 7.34 2.64 7 4 C4.69 3.67 2.38 3.34 0 3 C0 2.01 0 1.02 0 0 Z " fill="#4CB755" transform="translate(26,58)"/>
<path d="M0 0 C0.99 0 1.98 0 3 0 C2.67 2.31 2.34 4.62 2 7 C1.01 7 0.02 7 -1 7 C-0.67 4.69 -0.34 2.38 0 0 Z " fill="#32AE40" transform="translate(51,23)"/>
<path d="M0 0 C2.64 0 5.28 0 8 0 C7.67 0.99 7.34 1.98 7 3 C4.69 3 2.38 3 0 3 C0 2.01 0 1.02 0 0 Z " fill="#4AB852" transform="translate(28,49)"/>
<path d="M0 0 C1.32 0 2.64 0 4 0 C3.67 1.65 3.34 3.3 3 5 C1.68 5 0.36 5 -1 5 C-0.67 3.35 -0.34 1.7 0 0 Z " fill="#4EB357" transform="translate(43,39)"/>
<path d="M0 0 C2.96 4.44 2.96 4.44 4 7 C3.67 7.99 3.34 8.98 3 10 C3 9.34 3 8.68 3 8 C1.68 8 0.36 8 -1 8 C-0.67 5.36 -0.34 2.72 0 0 Z " fill="#C2D8C5" transform="translate(34,36)"/>
<path d="M0 0 C1.65 0 3.3 0 5 0 C4.67 1.32 4.34 2.64 4 4 C2.68 4 1.36 4 0 4 C0 2.68 0 1.36 0 0 Z " fill="#48B251" transform="translate(46,44)"/>
<path d="M0 0 C1.32 0 2.64 0 4 0 C4 1.32 4 2.64 4 4 C2.35 4 0.7 4 -1 4 C-0.67 2.68 -0.34 1.36 0 0 Z " fill="#5AB562" transform="translate(59,54)"/>
<path d="M0 0 C1.98 0.495 1.98 0.495 4 1 C3.67 2.32 3.34 3.64 3 5 C1.68 5 0.36 5 -1 5 C-0.67 3.35 -0.34 1.7 0 0 Z " fill="#57B960" transform="translate(23,48)"/>
<path d="M0 0 C0.33 0.66 0.66 1.32 1 2 C2.32 2 3.64 2 5 2 C5 2.99 5 3.98 5 5 C3.35 5 1.7 5 0 5 C0 3.35 0 1.7 0 0 Z " fill="#BDBDBD" transform="translate(74,38)"/>
<path d="M0 0 C0.99 0 1.98 0 3 0 C3 0.99 3 1.98 3 3 C4.65 3 6.3 3 8 3 C8 3.33 8 3.66 8 4 C5.36 4 2.72 4 0 4 C0 2.68 0 1.36 0 0 Z " fill="#4AB153" transform="translate(52,40)"/>
<path d="M0 0 C1.65 0 3.3 0 5 0 C4.67 1.32 4.34 2.64 4 4 C2.68 4 1.36 4 0 4 C0 2.68 0 1.36 0 0 Z " fill="#4CB557" transform="translate(36,26)"/>
<path d="M0 0 C1.45606519 4.52092968 0.27032841 7.51648796 -1 12 C-1.33 12 -1.66 12 -2 12 C-1.85831863 10.56208484 -1.71148957 9.1246763 -1.5625 7.6875 C-1.48128906 6.88699219 -1.40007813 6.08648437 -1.31640625 5.26171875 C-1 3 -1 3 0 0 Z " fill="#C1C1C1" transform="translate(9,61)"/>
<path d="M0 0 C1.45606519 4.52092968 0.27032841 7.51648796 -1 12 C-1.33 12 -1.66 12 -2 12 C-1.85831863 10.56208484 -1.71148957 9.1246763 -1.5625 7.6875 C-1.48128906 6.88699219 -1.40007813 6.08648437 -1.31640625 5.26171875 C-1 3 -1 3 0 0 Z " fill="#C1C1C1" transform="translate(15,34)"/>
<path d="M0 0 C0.33 0 0.66 0 1 0 C1 1.65 1 3.3 1 5 C0.67 5 0.34 5 0 5 C0 3.35 0 1.7 0 0 Z " fill="#D4D4D4" transform="translate(10,55)"/>
<path d="M0 0 C1 4 1 4 1 4 Z " fill="#A9A9A9" transform="translate(11,51)"/>
<path d="M0 0 C1 4 1 4 1 4 Z " fill="#DFDFDF" transform="translate(12,47)"/>
<path d="" fill="#7F7F7F" transform="translate(0,0)"/>
<path d="" fill="#FFFFFF" transform="translate(0,0)"/>
<path d="" fill="#3F3F3F" transform="translate(0,0)"/>
<path d="" fill="#949494" transform="translate(0,0)"/>
<path d="" fill="#1F1F1F" transform="translate(0,0)"/>
<path d="" fill="#3F3F3F" transform="translate(0,0)"/>
<path d="" fill="#7F7F7F" transform="translate(0,0)"/>
<path d="" fill="#3F3F3F" transform="translate(0,0)"/>
<path d="" fill="#7F7F7F" transform="translate(0,0)"/>
<path d="" fill="#7F0000" transform="translate(0,0)"/>
<path d="" fill="#FFFFFF" transform="translate(0,0)"/>
<path d="" fill="#999999" transform="translate(0,0)"/>
<path d="" fill="#AAAAAA" transform="translate(0,0)"/>
<path d="" fill="#999999" transform="translate(0,0)"/>
<path d="" fill="#FFFFFF" transform="translate(0,0)"/>
<path d="" fill="#FFFFFF" transform="translate(0,0)"/>
<path d="" fill="#AAAAAA" transform="translate(0,0)"/>
<path d="" fill="#999999" transform="translate(0,0)"/>
<path d="" fill="#555555" transform="translate(0,0)"/>
<path d="" fill="#000000" transform="translate(0,0)"/>
<path d="" fill="#7F7F7F" transform="translate(0,0)"/>
<path d="" fill="#555555" transform="translate(0,0)"/>
<path d="" fill="#7F7F7F" transform="translate(0,0)"/>
<path d="" fill="#000000" transform="translate(0,0)"/>
</svg>
